<svg width="33" height="33" viewBox="0 0 33 33" fill="none" xmlns="http://www.w3.org/2000/svg">
<mask id="mask0_2034_410" style="mask-type:alpha" maskUnits="userSpaceOnUse" x="0" y="0" width="33" height="33">
<rect y="2.78626" width="30" height="30" transform="rotate(-5.32904 0 2.78626)" fill="#D9D9D9"/>
</mask>
<g mask="url(#mask0_2034_410)">
<path d="M14.6457 21.507L21.1693 16.4103C21.3444 16.2684 21.4213 16.0834 21.4 15.8552C21.3787 15.627 21.2689 15.4594 21.0706 15.3524L13.717 11.5502C13.496 11.4243 13.2824 11.4338 13.0762 11.5786C12.87 11.7233 12.7785 11.9202 12.8017 12.1691L13.6318 21.068C13.655 21.3169 13.7814 21.4934 14.0108 21.5976C14.2402 21.7017 14.4518 21.6715 14.6457 21.507ZM7.30025 27.2138C6.61572 27.2777 6.00699 27.0886 5.47405 26.6466C4.94111 26.2046 4.64272 25.6414 4.57887 24.9568L3.18574 10.0217C3.12189 9.33714 3.31096 8.7284 3.75296 8.19547C4.19496 7.66253 4.75822 7.36413 5.44275 7.30028L25.3563 5.44278C26.0408 5.37893 26.6496 5.568 27.1825 6.01C27.7154 6.45199 28.0138 7.01526 28.0777 7.69979L29.4708 22.635C29.5347 23.3195 29.3456 23.9282 28.9036 24.4612C28.4616 24.9941 27.8983 25.2925 27.2138 25.3563L7.30025 27.2138ZM7.06806 24.7246L26.9816 22.8671L25.5885 7.93197L5.67493 9.78948L7.06806 24.7246Z" fill="#303131"/>
</g>
</svg>
