<svg width="150" height="53" viewBox="0 0 150 53" fill="none" xmlns="http://www.w3.org/2000/svg">
<g filter="url(#filter0_d_2200_2311)">
<rect x="2" y="2" width="140" height="43" rx="10" fill="#BFE5F2" shape-rendering="crispEdges"/>
<path d="M23.216 29V17.8H27.008C27.776 17.8 28.448 17.9173 29.024 18.152C29.6 18.3867 30.048 18.744 30.368 19.224C30.688 19.6933 30.848 20.28 30.848 20.984C30.848 21.4213 30.736 21.8267 30.512 22.2C30.2987 22.5627 29.9947 22.8773 29.6 23.144C30.1227 23.4107 30.5227 23.768 30.8 24.216C31.088 24.6533 31.232 25.1813 31.232 25.8C31.232 26.4827 31.0773 27.064 30.768 27.544C30.4587 28.024 30.0267 28.3867 29.472 28.632C28.9173 28.8773 28.2667 29 27.52 29H23.216ZM25.36 27.064H27.312C27.8347 27.064 28.2453 26.936 28.544 26.68C28.8427 26.4133 28.992 26.0613 28.992 25.624C28.992 25.1653 28.8267 24.808 28.496 24.552C28.1653 24.2853 27.712 24.152 27.136 24.152H25.36V27.064ZM25.36 22.36H27.056C27.536 22.36 27.9147 22.2373 28.192 21.992C28.4693 21.7467 28.608 21.4 28.608 20.952C28.608 20.504 28.4533 20.1573 28.144 19.912C27.8347 19.6667 27.4133 19.544 26.88 19.544H25.36V22.36ZM37.5409 29L37.4769 27.384V24.952C37.4769 24.472 37.4235 24.0613 37.3169 23.72C37.2209 23.3787 37.0609 23.1173 36.8369 22.936C36.6235 22.744 36.3302 22.648 35.9569 22.648C35.6155 22.648 35.3062 22.7227 35.0289 22.872C34.7515 23.0213 34.5169 23.2507 34.3249 23.56L32.4689 22.92C32.6182 22.5787 32.8369 22.248 33.1249 21.928C33.4129 21.5973 33.7862 21.3307 34.2449 21.128C34.7142 20.9147 35.2849 20.808 35.9569 20.808C36.7675 20.808 37.4395 20.9627 37.9729 21.272C38.5169 21.5813 38.9169 22.0187 39.1729 22.584C39.4395 23.1387 39.5675 23.8 39.5569 24.568L39.5089 29H37.5409ZM35.3009 29.192C34.3409 29.192 33.5942 28.9787 33.0609 28.552C32.5382 28.1253 32.2769 27.5227 32.2769 26.744C32.2769 25.8907 32.5595 25.2507 33.1249 24.824C33.7009 24.3867 34.5062 24.168 35.5409 24.168H37.5729V25.736H36.2769C35.5835 25.736 35.1035 25.8213 34.8369 25.992C34.5702 26.152 34.4369 26.3813 34.4369 26.68C34.4369 26.9147 34.5435 27.1013 34.7569 27.24C34.9702 27.368 35.2689 27.432 35.6529 27.432C36.0049 27.432 36.3142 27.352 36.5809 27.192C36.8582 27.0213 37.0769 26.808 37.2369 26.552C37.3969 26.2853 37.4769 26.0133 37.4769 25.736H37.9889C37.9889 26.824 37.7809 27.672 37.3649 28.28C36.9595 28.888 36.2715 29.192 35.3009 29.192ZM45.0961 29.192C44.2641 29.192 43.5228 29.016 42.8721 28.664C42.2215 28.3013 41.7148 27.8053 41.3521 27.176C40.9895 26.536 40.8081 25.8107 40.8081 25C40.8081 24.1787 40.9895 23.4533 41.3521 22.824C41.7148 22.1947 42.2161 21.704 42.8561 21.352C43.4961 20.9893 44.2321 20.808 45.0641 20.808C45.8641 20.808 46.5948 21.0053 47.2561 21.4C47.9175 21.7947 48.3975 22.3653 48.6961 23.112L46.7121 23.816C46.5628 23.5067 46.3281 23.2613 46.0081 23.08C45.6988 22.888 45.3521 22.792 44.9681 22.792C44.5735 22.792 44.2268 22.888 43.9281 23.08C43.6295 23.2613 43.3948 23.5173 43.2241 23.848C43.0535 24.1787 42.9681 24.5627 42.9681 25C42.9681 25.4373 43.0535 25.8213 43.2241 26.152C43.3948 26.472 43.6348 26.728 43.9441 26.92C44.2535 27.112 44.6055 27.208 45.0001 27.208C45.3841 27.208 45.7308 27.1067 46.0401 26.904C46.3601 26.7013 46.5948 26.4347 46.7441 26.104L48.7441 26.808C48.4348 27.5653 47.9495 28.152 47.2881 28.568C46.6375 28.984 45.9068 29.192 45.0961 29.192ZM51.9905 26.968L50.7265 25.512L54.8225 21H57.3345L51.9905 26.968ZM49.9745 29V17.8H52.0865V29H49.9745ZM55.0945 29L52.4385 25.128L53.8145 23.672L57.5745 29H55.0945ZM65.6924 29.192C64.807 29.192 64.135 28.9733 63.6764 28.536C63.2284 28.0987 63.0044 27.4747 63.0044 26.664V18.504H65.1164V26.2C65.1164 26.5413 65.191 26.8027 65.3404 26.984C65.4897 27.1547 65.7084 27.24 65.9964 27.24C66.103 27.24 66.2204 27.2187 66.3484 27.176C66.4764 27.1227 66.6097 27.048 66.7484 26.952L67.4844 28.536C67.2284 28.728 66.9404 28.8827 66.6204 29C66.311 29.128 66.0017 29.192 65.6924 29.192ZM61.7084 22.792V21H67.1164V22.792H61.7084ZM72.4533 29.192C71.6426 29.192 70.9173 29.016 70.2773 28.664C69.6479 28.3013 69.1519 27.8053 68.7893 27.176C68.4373 26.5467 68.2613 25.8213 68.2613 25C68.2613 24.1787 68.4373 23.4533 68.7893 22.824C69.1413 22.1947 69.6319 21.704 70.2613 21.352C70.8906 20.9893 71.6106 20.808 72.4213 20.808C73.2426 20.808 73.9679 20.9893 74.5973 21.352C75.2266 21.704 75.7173 22.1947 76.0693 22.824C76.4213 23.4533 76.5972 24.1787 76.5972 25C76.5972 25.8213 76.4213 26.5467 76.0693 27.176C75.7173 27.8053 75.2266 28.3013 74.5973 28.664C73.9786 29.016 73.2639 29.192 72.4533 29.192ZM72.4533 27.24C72.8479 27.24 73.1946 27.144 73.4933 26.952C73.7919 26.76 74.0213 26.4987 74.1813 26.168C74.3519 25.8267 74.4373 25.4373 74.4373 25C74.4373 24.5627 74.3519 24.1787 74.1813 23.848C74.0106 23.5067 73.7706 23.24 73.4613 23.048C73.1626 22.856 72.8159 22.76 72.4213 22.76C72.0373 22.76 71.6906 22.856 71.3813 23.048C71.0826 23.24 70.8479 23.5067 70.6773 23.848C70.5066 24.1787 70.4213 24.5627 70.4213 25C70.4213 25.4373 70.5066 25.8267 70.6773 26.168C70.8479 26.4987 71.0879 26.76 71.3973 26.952C71.7066 27.144 72.0586 27.24 72.4533 27.24ZM85.4026 32.408C84.7946 32.408 84.256 32.3653 83.7866 32.28C83.3173 32.1947 82.9226 32.0827 82.6026 31.944C82.2826 31.8053 82.0213 31.6667 81.8186 31.528L82.6506 29.832C82.8 29.9173 82.9973 30.0133 83.2426 30.12C83.488 30.2373 83.7813 30.3333 84.1226 30.408C84.464 30.4933 84.8586 30.536 85.3066 30.536C85.7333 30.536 86.1066 30.4507 86.4266 30.28C86.7573 30.12 87.0133 29.864 87.1946 29.512C87.3866 29.1707 87.4826 28.7333 87.4826 28.2V21H89.5946V28.136C89.5946 29.032 89.424 29.8 89.0826 30.44C88.7413 31.0907 88.256 31.5813 87.6266 31.912C87.008 32.2427 86.2666 32.408 85.4026 32.408ZM84.9866 28.776C84.2506 28.776 83.6106 28.616 83.0666 28.296C82.5333 27.976 82.1173 27.528 81.8186 26.952C81.52 26.376 81.3706 25.6933 81.3706 24.904C81.3706 24.072 81.52 23.352 81.8186 22.744C82.1173 22.1253 82.5333 21.6507 83.0666 21.32C83.6106 20.9787 84.2506 20.808 84.9866 20.808C85.6266 20.808 86.1813 20.9787 86.6506 21.32C87.12 21.6507 87.4826 22.1253 87.7386 22.744C87.9946 23.3627 88.1226 24.0987 88.1226 24.952C88.1226 25.72 87.9946 26.392 87.7386 26.968C87.4826 27.544 87.12 27.992 86.6506 28.312C86.1813 28.6213 85.6266 28.776 84.9866 28.776ZM85.5946 27C85.9573 27 86.272 26.9093 86.5386 26.728C86.816 26.536 87.0293 26.28 87.1786 25.96C87.328 25.6293 87.4026 25.256 87.4026 24.84C87.4026 24.4133 87.3226 24.04 87.1626 23.72C87.0133 23.4 86.8 23.1493 86.5226 22.968C86.256 22.7867 85.9413 22.696 85.5786 22.696C85.2053 22.696 84.8746 22.7867 84.5866 22.968C84.2986 23.1493 84.0746 23.4 83.9146 23.72C83.7546 24.04 83.6693 24.4133 83.6586 24.84C83.6693 25.256 83.7546 25.6293 83.9146 25.96C84.0746 26.28 84.2986 26.536 84.5866 26.728C84.8853 26.9093 85.2213 27 85.5946 27ZM96.244 29L96.18 27.384V24.952C96.18 24.472 96.1267 24.0613 96.02 23.72C95.924 23.3787 95.764 23.1173 95.54 22.936C95.3267 22.744 95.0333 22.648 94.66 22.648C94.3187 22.648 94.0093 22.7227 93.732 22.872C93.4547 23.0213 93.22 23.2507 93.028 23.56L91.172 22.92C91.3213 22.5787 91.54 22.248 91.828 21.928C92.116 21.5973 92.4893 21.3307 92.948 21.128C93.4173 20.9147 93.988 20.808 94.66 20.808C95.4707 20.808 96.1427 20.9627 96.676 21.272C97.22 21.5813 97.62 22.0187 97.876 22.584C98.1427 23.1387 98.2707 23.8 98.26 24.568L98.212 29H96.244ZM94.004 29.192C93.044 29.192 92.2973 28.9787 91.764 28.552C91.2413 28.1253 90.98 27.5227 90.98 26.744C90.98 25.8907 91.2627 25.2507 91.828 24.824C92.404 24.3867 93.2093 24.168 94.244 24.168H96.276V25.736H94.98C94.2867 25.736 93.8067 25.8213 93.54 25.992C93.2733 26.152 93.14 26.3813 93.14 26.68C93.14 26.9147 93.2467 27.1013 93.46 27.24C93.6733 27.368 93.972 27.432 94.356 27.432C94.708 27.432 95.0173 27.352 95.284 27.192C95.5613 27.0213 95.78 26.808 95.94 26.552C96.1 26.2853 96.18 26.0133 96.18 25.736H96.692C96.692 26.824 96.484 27.672 96.068 28.28C95.6627 28.888 94.9747 29.192 94.004 29.192ZM99.9433 29V21H101.927L102.023 22.04C102.269 21.6347 102.583 21.3307 102.967 21.128C103.351 20.9147 103.778 20.808 104.247 20.808C104.898 20.808 105.442 20.9467 105.879 21.224C106.327 21.5013 106.653 21.928 106.855 22.504C107.09 21.96 107.421 21.544 107.847 21.256C108.274 20.9573 108.77 20.808 109.335 20.808C110.274 20.808 110.989 21.1067 111.479 21.704C111.97 22.2907 112.215 23.1973 112.215 24.424V29H110.103V24.904C110.103 24.36 110.045 23.9387 109.927 23.64C109.81 23.3413 109.65 23.128 109.447 23C109.245 22.8613 109.005 22.792 108.727 22.792C108.215 22.7813 107.821 22.9467 107.543 23.288C107.266 23.6293 107.127 24.136 107.127 24.808V29H105.015V24.904C105.015 24.36 104.957 23.9387 104.839 23.64C104.733 23.3413 104.573 23.128 104.359 23C104.157 22.8613 103.917 22.792 103.639 22.792C103.127 22.7813 102.733 22.9467 102.455 23.288C102.189 23.6293 102.055 24.136 102.055 24.808V29H99.9433ZM117.512 29.192C116.723 29.192 116.024 29.016 115.416 28.664C114.808 28.3013 114.328 27.8053 113.976 27.176C113.635 26.5467 113.464 25.8213 113.464 25C113.464 24.1787 113.64 23.4533 113.992 22.824C114.355 22.1947 114.846 21.704 115.464 21.352C116.094 20.9893 116.814 20.808 117.624 20.808C118.328 20.808 118.974 20.9947 119.56 21.368C120.158 21.7307 120.632 22.2693 120.984 22.984C121.347 23.688 121.528 24.5467 121.528 25.56H115.464L115.656 25.368C115.656 25.7627 115.752 26.1093 115.944 26.408C116.147 26.696 116.403 26.92 116.712 27.08C117.032 27.2293 117.374 27.304 117.736 27.304C118.174 27.304 118.531 27.2133 118.808 27.032C119.086 26.84 119.299 26.5947 119.448 26.296L121.336 27.032C121.112 27.48 120.819 27.8693 120.456 28.2C120.104 28.52 119.683 28.7653 119.192 28.936C118.702 29.1067 118.142 29.192 117.512 29.192ZM115.768 24.184L115.576 23.992H119.432L119.256 24.184C119.256 23.8 119.166 23.496 118.984 23.272C118.803 23.0373 118.579 22.8667 118.312 22.76C118.056 22.6533 117.806 22.6 117.56 22.6C117.315 22.6 117.054 22.6533 116.776 22.76C116.499 22.8667 116.259 23.0373 116.056 23.272C115.864 23.496 115.768 23.8 115.768 24.184Z" fill="#1E7594"/>
</g>
<defs>
<filter id="filter0_d_2200_2311" x="0" y="0" width="150" height="53" filterUnits="userSpaceOnUse" color-interpolation-filters="sRGB">
<feFlood flood-opacity="0" result="BackgroundImageFix"/>
<feColorMatrix in="SourceAlpha" type="matrix" values="0 0 0 0 0 0 0 0 0 0 0 0 0 0 0 0 0 0 127 0" result="hardAlpha"/>
<feOffset dx="3" dy="3"/>
<feGaussianBlur stdDeviation="2.5"/>
<feComposite in2="hardAlpha" operator="out"/>
<feColorMatrix type="matrix" values="0 0 0 0 0.182749 0 0 0 0 0.18106 0 0 0 0 0.18106 0 0 0 0.2 0"/>
<feBlend mode="normal" in2="BackgroundImageFix" result="effect1_dropShadow_2200_2311"/>
<feBlend mode="normal" in="SourceGraphic" in2="effect1_dropShadow_2200_2311" result="shape"/>
</filter>
</defs>
</svg>
