<svg width="140" height="43" viewBox="0 0 140 43" fill="none" xmlns="http://www.w3.org/2000/svg">
<rect width="140" height="43" rx="10" fill="#1E7594"/>
<path d="M21.216 27V15.8H25.008C25.776 15.8 26.448 15.9173 27.024 16.152C27.6 16.3867 28.048 16.744 28.368 17.224C28.688 17.6933 28.848 18.28 28.848 18.984C28.848 19.4213 28.736 19.8267 28.512 20.2C28.2987 20.5627 27.9947 20.8773 27.6 21.144C28.1227 21.4107 28.5227 21.768 28.8 22.216C29.088 22.6533 29.232 23.1813 29.232 23.8C29.232 24.4827 29.0773 25.064 28.768 25.544C28.4587 26.024 28.0267 26.3867 27.472 26.632C26.9173 26.8773 26.2667 27 25.52 27H21.216ZM23.36 25.064H25.312C25.8347 25.064 26.2453 24.936 26.544 24.68C26.8427 24.4133 26.992 24.0613 26.992 23.624C26.992 23.1653 26.8267 22.808 26.496 22.552C26.1653 22.2853 25.712 22.152 25.136 22.152H23.36V25.064ZM23.36 20.36H25.056C25.536 20.36 25.9147 20.2373 26.192 19.992C26.4693 19.7467 26.608 19.4 26.608 18.952C26.608 18.504 26.4533 18.1573 26.144 17.912C25.8347 17.6667 25.4133 17.544 24.88 17.544H23.36V20.36ZM35.5409 27L35.4769 25.384V22.952C35.4769 22.472 35.4235 22.0613 35.3169 21.72C35.2209 21.3787 35.0609 21.1173 34.8369 20.936C34.6235 20.744 34.3302 20.648 33.9569 20.648C33.6155 20.648 33.3062 20.7227 33.0289 20.872C32.7515 21.0213 32.5169 21.2507 32.3249 21.56L30.4689 20.92C30.6182 20.5787 30.8369 20.248 31.1249 19.928C31.4129 19.5973 31.7862 19.3307 32.2449 19.128C32.7142 18.9147 33.2849 18.808 33.9569 18.808C34.7675 18.808 35.4395 18.9627 35.9729 19.272C36.5169 19.5813 36.9169 20.0187 37.1729 20.584C37.4395 21.1387 37.5675 21.8 37.5569 22.568L37.5089 27H35.5409ZM33.3009 27.192C32.3409 27.192 31.5942 26.9787 31.0609 26.552C30.5382 26.1253 30.2769 25.5227 30.2769 24.744C30.2769 23.8907 30.5595 23.2507 31.1249 22.824C31.7009 22.3867 32.5062 22.168 33.5409 22.168H35.5729V23.736H34.2769C33.5835 23.736 33.1035 23.8213 32.8369 23.992C32.5702 24.152 32.4369 24.3813 32.4369 24.68C32.4369 24.9147 32.5435 25.1013 32.7569 25.24C32.9702 25.368 33.2689 25.432 33.6529 25.432C34.0049 25.432 34.3142 25.352 34.5809 25.192C34.8582 25.0213 35.0769 24.808 35.2369 24.552C35.3969 24.2853 35.4769 24.0133 35.4769 23.736H35.9889C35.9889 24.824 35.7809 25.672 35.3649 26.28C34.9595 26.888 34.2715 27.192 33.3009 27.192ZM43.0961 27.192C42.2641 27.192 41.5228 27.016 40.8721 26.664C40.2215 26.3013 39.7148 25.8053 39.3521 25.176C38.9895 24.536 38.8081 23.8107 38.8081 23C38.8081 22.1787 38.9895 21.4533 39.3521 20.824C39.7148 20.1947 40.2161 19.704 40.8561 19.352C41.4961 18.9893 42.2321 18.808 43.0641 18.808C43.8641 18.808 44.5948 19.0053 45.2561 19.4C45.9175 19.7947 46.3975 20.3653 46.6961 21.112L44.7121 21.816C44.5628 21.5067 44.3281 21.2613 44.0081 21.08C43.6988 20.888 43.3521 20.792 42.9681 20.792C42.5735 20.792 42.2268 20.888 41.9281 21.08C41.6295 21.2613 41.3948 21.5173 41.2241 21.848C41.0535 22.1787 40.9681 22.5627 40.9681 23C40.9681 23.4373 41.0535 23.8213 41.2241 24.152C41.3948 24.472 41.6348 24.728 41.9441 24.92C42.2535 25.112 42.6055 25.208 43.0001 25.208C43.3841 25.208 43.7308 25.1067 44.0401 24.904C44.3601 24.7013 44.5948 24.4347 44.7441 24.104L46.7441 24.808C46.4348 25.5653 45.9495 26.152 45.2881 26.568C44.6375 26.984 43.9068 27.192 43.0961 27.192ZM49.9905 24.968L48.7265 23.512L52.8225 19H55.3345L49.9905 24.968ZM47.9745 27V15.8H50.0865V27H47.9745ZM53.0945 27L50.4385 23.128L51.8145 21.672L55.5745 27H53.0945ZM63.6924 27.192C62.807 27.192 62.135 26.9733 61.6764 26.536C61.2284 26.0987 61.0044 25.4747 61.0044 24.664V16.504H63.1164V24.2C63.1164 24.5413 63.191 24.8027 63.3404 24.984C63.4897 25.1547 63.7084 25.24 63.9964 25.24C64.103 25.24 64.2204 25.2187 64.3484 25.176C64.4764 25.1227 64.6097 25.048 64.7484 24.952L65.4844 26.536C65.2284 26.728 64.9404 26.8827 64.6204 27C64.311 27.128 64.0017 27.192 63.6924 27.192ZM59.7084 20.792V19H65.1164V20.792H59.7084ZM70.4533 27.192C69.6426 27.192 68.9173 27.016 68.2773 26.664C67.6479 26.3013 67.1519 25.8053 66.7893 25.176C66.4373 24.5467 66.2613 23.8213 66.2613 23C66.2613 22.1787 66.4373 21.4533 66.7893 20.824C67.1413 20.1947 67.6319 19.704 68.2613 19.352C68.8906 18.9893 69.6106 18.808 70.4213 18.808C71.2426 18.808 71.9679 18.9893 72.5973 19.352C73.2266 19.704 73.7173 20.1947 74.0693 20.824C74.4213 21.4533 74.5972 22.1787 74.5972 23C74.5972 23.8213 74.4213 24.5467 74.0693 25.176C73.7173 25.8053 73.2266 26.3013 72.5973 26.664C71.9786 27.016 71.2639 27.192 70.4533 27.192ZM70.4533 25.24C70.8479 25.24 71.1946 25.144 71.4933 24.952C71.7919 24.76 72.0213 24.4987 72.1813 24.168C72.3519 23.8267 72.4373 23.4373 72.4373 23C72.4373 22.5627 72.3519 22.1787 72.1813 21.848C72.0106 21.5067 71.7706 21.24 71.4613 21.048C71.1626 20.856 70.8159 20.76 70.4213 20.76C70.0373 20.76 69.6906 20.856 69.3813 21.048C69.0826 21.24 68.8479 21.5067 68.6773 21.848C68.5066 22.1787 68.4213 22.5627 68.4213 23C68.4213 23.4373 68.5066 23.8267 68.6773 24.168C68.8479 24.4987 69.0879 24.76 69.3973 24.952C69.7066 25.144 70.0586 25.24 70.4533 25.24ZM83.4026 30.408C82.7946 30.408 82.256 30.3653 81.7866 30.28C81.3173 30.1947 80.9226 30.0827 80.6026 29.944C80.2826 29.8053 80.0213 29.6667 79.8186 29.528L80.6506 27.832C80.8 27.9173 80.9973 28.0133 81.2426 28.12C81.488 28.2373 81.7813 28.3333 82.1226 28.408C82.464 28.4933 82.8586 28.536 83.3066 28.536C83.7333 28.536 84.1066 28.4507 84.4266 28.28C84.7573 28.12 85.0133 27.864 85.1946 27.512C85.3866 27.1707 85.4826 26.7333 85.4826 26.2V19H87.5946V26.136C87.5946 27.032 87.424 27.8 87.0826 28.44C86.7413 29.0907 86.256 29.5813 85.6266 29.912C85.008 30.2427 84.2666 30.408 83.4026 30.408ZM82.9866 26.776C82.2506 26.776 81.6106 26.616 81.0666 26.296C80.5333 25.976 80.1173 25.528 79.8186 24.952C79.52 24.376 79.3706 23.6933 79.3706 22.904C79.3706 22.072 79.52 21.352 79.8186 20.744C80.1173 20.1253 80.5333 19.6507 81.0666 19.32C81.6106 18.9787 82.2506 18.808 82.9866 18.808C83.6266 18.808 84.1813 18.9787 84.6506 19.32C85.12 19.6507 85.4826 20.1253 85.7386 20.744C85.9946 21.3627 86.1226 22.0987 86.1226 22.952C86.1226 23.72 85.9946 24.392 85.7386 24.968C85.4826 25.544 85.12 25.992 84.6506 26.312C84.1813 26.6213 83.6266 26.776 82.9866 26.776ZM83.5946 25C83.9573 25 84.272 24.9093 84.5386 24.728C84.816 24.536 85.0293 24.28 85.1786 23.96C85.328 23.6293 85.4026 23.256 85.4026 22.84C85.4026 22.4133 85.3226 22.04 85.1626 21.72C85.0133 21.4 84.8 21.1493 84.5226 20.968C84.256 20.7867 83.9413 20.696 83.5786 20.696C83.2053 20.696 82.8746 20.7867 82.5866 20.968C82.2986 21.1493 82.0746 21.4 81.9146 21.72C81.7546 22.04 81.6693 22.4133 81.6586 22.84C81.6693 23.256 81.7546 23.6293 81.9146 23.96C82.0746 24.28 82.2986 24.536 82.5866 24.728C82.8853 24.9093 83.2213 25 83.5946 25ZM94.244 27L94.18 25.384V22.952C94.18 22.472 94.1267 22.0613 94.02 21.72C93.924 21.3787 93.764 21.1173 93.54 20.936C93.3267 20.744 93.0333 20.648 92.66 20.648C92.3187 20.648 92.0093 20.7227 91.732 20.872C91.4547 21.0213 91.22 21.2507 91.028 21.56L89.172 20.92C89.3213 20.5787 89.54 20.248 89.828 19.928C90.116 19.5973 90.4893 19.3307 90.948 19.128C91.4173 18.9147 91.988 18.808 92.66 18.808C93.4707 18.808 94.1427 18.9627 94.676 19.272C95.22 19.5813 95.62 20.0187 95.876 20.584C96.1427 21.1387 96.2707 21.8 96.26 22.568L96.212 27H94.244ZM92.004 27.192C91.044 27.192 90.2973 26.9787 89.764 26.552C89.2413 26.1253 88.98 25.5227 88.98 24.744C88.98 23.8907 89.2627 23.2507 89.828 22.824C90.404 22.3867 91.2093 22.168 92.244 22.168H94.276V23.736H92.98C92.2867 23.736 91.8067 23.8213 91.54 23.992C91.2733 24.152 91.14 24.3813 91.14 24.68C91.14 24.9147 91.2467 25.1013 91.46 25.24C91.6733 25.368 91.972 25.432 92.356 25.432C92.708 25.432 93.0173 25.352 93.284 25.192C93.5613 25.0213 93.78 24.808 93.94 24.552C94.1 24.2853 94.18 24.0133 94.18 23.736H94.692C94.692 24.824 94.484 25.672 94.068 26.28C93.6627 26.888 92.9747 27.192 92.004 27.192ZM97.9433 27V19H99.9273L100.023 20.04C100.269 19.6347 100.583 19.3307 100.967 19.128C101.351 18.9147 101.778 18.808 102.247 18.808C102.898 18.808 103.442 18.9467 103.879 19.224C104.327 19.5013 104.653 19.928 104.855 20.504C105.09 19.96 105.421 19.544 105.847 19.256C106.274 18.9573 106.77 18.808 107.335 18.808C108.274 18.808 108.989 19.1067 109.479 19.704C109.97 20.2907 110.215 21.1973 110.215 22.424V27H108.103V22.904C108.103 22.36 108.045 21.9387 107.927 21.64C107.81 21.3413 107.65 21.128 107.447 21C107.245 20.8613 107.005 20.792 106.727 20.792C106.215 20.7813 105.821 20.9467 105.543 21.288C105.266 21.6293 105.127 22.136 105.127 22.808V27H103.015V22.904C103.015 22.36 102.957 21.9387 102.839 21.64C102.733 21.3413 102.573 21.128 102.359 21C102.157 20.8613 101.917 20.792 101.639 20.792C101.127 20.7813 100.733 20.9467 100.455 21.288C100.189 21.6293 100.055 22.136 100.055 22.808V27H97.9433ZM115.512 27.192C114.723 27.192 114.024 27.016 113.416 26.664C112.808 26.3013 112.328 25.8053 111.976 25.176C111.635 24.5467 111.464 23.8213 111.464 23C111.464 22.1787 111.64 21.4533 111.992 20.824C112.355 20.1947 112.846 19.704 113.464 19.352C114.094 18.9893 114.814 18.808 115.624 18.808C116.328 18.808 116.974 18.9947 117.56 19.368C118.158 19.7307 118.632 20.2693 118.984 20.984C119.347 21.688 119.528 22.5467 119.528 23.56H113.464L113.656 23.368C113.656 23.7627 113.752 24.1093 113.944 24.408C114.147 24.696 114.403 24.92 114.712 25.08C115.032 25.2293 115.374 25.304 115.736 25.304C116.174 25.304 116.531 25.2133 116.808 25.032C117.086 24.84 117.299 24.5947 117.448 24.296L119.336 25.032C119.112 25.48 118.819 25.8693 118.456 26.2C118.104 26.52 117.683 26.7653 117.192 26.936C116.702 27.1067 116.142 27.192 115.512 27.192ZM113.768 22.184L113.576 21.992H117.432L117.256 22.184C117.256 21.8 117.166 21.496 116.984 21.272C116.803 21.0373 116.579 20.8667 116.312 20.76C116.056 20.6533 115.806 20.6 115.56 20.6C115.315 20.6 115.054 20.6533 114.776 20.76C114.499 20.8667 114.259 21.0373 114.056 21.272C113.864 21.496 113.768 21.8 113.768 22.184Z" fill="white"/>
</svg>
