<svg width="182" height="64" viewBox="0 0 182 64" fill="none" xmlns="http://www.w3.org/2000/svg">
<g filter="url(#filter0_d_2197_5350)">
<rect x="2" y="2" width="172" height="54" rx="10" fill="#1E7594" shape-rendering="crispEdges"/>
<g filter="url(#filter1_d_2197_5350)">
<mask id="mask0_2197_5350" style="mask-type:alpha" maskUnits="userSpaceOnUse" x="22" y="14" width="30" height="30">
<rect x="22" y="14" width="30" height="30" fill="#D9D9D9"/>
</mask>
<g mask="url(#mask0_2197_5350)">
<path d="M47.1875 30.25H33.25C32.8958 30.25 32.599 30.1302 32.3594 29.8906C32.1198 29.651 32 29.3542 32 29C32 28.6458 32.1198 28.349 32.3594 28.1094C32.599 27.8698 32.8958 27.75 33.25 27.75H47.1875L46.125 26.6875C45.875 26.4375 45.7552 26.1458 45.7656 25.8125C45.776 25.4792 45.8958 25.1875 46.125 24.9375C46.375 24.6875 46.6719 24.5573 47.0156 24.5469C47.3594 24.5365 47.6562 24.6562 47.9062 24.9062L51.125 28.125C51.375 28.375 51.5 28.6667 51.5 29C51.5 29.3333 51.375 29.625 51.125 29.875L47.9062 33.0938C47.6562 33.3438 47.3594 33.4635 47.0156 33.4531C46.6719 33.4427 46.375 33.3125 46.125 33.0625C45.8958 32.8125 45.776 32.5208 45.7656 32.1875C45.7552 31.8542 45.875 31.5625 46.125 31.3125L47.1875 30.25ZM40.75 24V20.25H28.25V37.75H40.75V34C40.75 33.6458 40.8698 33.349 41.1094 33.1094C41.349 32.8698 41.6458 32.75 42 32.75C42.3542 32.75 42.651 32.8698 42.8906 33.1094C43.1302 33.349 43.25 33.6458 43.25 34V37.75C43.25 38.4375 43.0052 39.026 42.5156 39.5156C42.026 40.0052 41.4375 40.25 40.75 40.25H28.25C27.5625 40.25 26.974 40.0052 26.4844 39.5156C25.9948 39.026 25.75 38.4375 25.75 37.75V20.25C25.75 19.5625 25.9948 18.974 26.4844 18.4844C26.974 17.9948 27.5625 17.75 28.25 17.75H40.75C41.4375 17.75 42.026 17.9948 42.5156 18.4844C43.0052 18.974 43.25 19.5625 43.25 20.25V24C43.25 24.3542 43.1302 24.651 42.8906 24.8906C42.651 25.1302 42.3542 25.25 42 25.25C41.6458 25.25 41.349 25.1302 41.1094 24.8906C40.8698 24.651 40.75 24.3542 40.75 24Z" fill="white"/>
</g>
</g>
<path d="M63.52 36V22H72.38V24.5H66.26V27.68H71.54V30.12H66.26V33.5H72.46V36H63.52ZM73.9773 36L78.0773 30.28L80.9373 26H84.0573L80.0773 31.58L77.1373 36H73.9773ZM81.1573 36L78.2573 31.58L74.2373 26H77.3573L80.2173 30.28L84.2973 36H81.1573ZM85.8 36V26H88.44V36H85.8ZM87.12 24.38C86.72 24.38 86.3667 24.2333 86.06 23.94C85.7533 23.6333 85.6 23.2733 85.6 22.86C85.6 22.4467 85.7533 22.0933 86.06 21.8C86.3667 21.4933 86.72 21.34 87.12 21.34C87.5333 21.34 87.8867 21.4933 88.18 21.8C88.4867 22.0933 88.64 22.4467 88.64 22.86C88.64 23.2733 88.4867 23.6333 88.18 23.94C87.8867 24.2333 87.5333 24.38 87.12 24.38ZM94.9944 36.24C93.8877 36.24 93.0477 35.9667 92.4744 35.42C91.9144 34.8733 91.6344 34.0933 91.6344 33.08V22.88H94.2744V32.5C94.2744 32.9267 94.3677 33.2533 94.5544 33.48C94.741 33.6933 95.0144 33.8 95.3744 33.8C95.5077 33.8 95.6544 33.7733 95.8144 33.72C95.9744 33.6533 96.141 33.56 96.3144 33.44L97.2344 35.42C96.9144 35.66 96.5544 35.8533 96.1544 36C95.7677 36.16 95.381 36.24 94.9944 36.24ZM90.0144 28.24V26H96.7744V28.24H90.0144ZM108.187 40.26C107.427 40.26 106.754 40.2067 106.167 40.1C105.58 39.9933 105.087 39.8533 104.687 39.68C104.287 39.5067 103.96 39.3333 103.707 39.16L104.747 37.04C104.934 37.1467 105.18 37.2667 105.487 37.4C105.794 37.5467 106.16 37.6667 106.587 37.76C107.014 37.8667 107.507 37.92 108.067 37.92C108.6 37.92 109.067 37.8133 109.467 37.6C109.88 37.4 110.2 37.08 110.427 36.64C110.667 36.2133 110.787 35.6667 110.787 35V26H113.427V34.92C113.427 36.04 113.214 37 112.787 37.8C112.36 38.6133 111.754 39.2267 110.967 39.64C110.194 40.0533 109.267 40.26 108.187 40.26ZM107.667 35.72C106.747 35.72 105.947 35.52 105.267 35.12C104.6 34.72 104.08 34.16 103.707 33.44C103.334 32.72 103.147 31.8667 103.147 30.88C103.147 29.84 103.334 28.94 103.707 28.18C104.08 27.4067 104.6 26.8133 105.267 26.4C105.947 25.9733 106.747 25.76 107.667 25.76C108.467 25.76 109.16 25.9733 109.747 26.4C110.334 26.8133 110.787 27.4067 111.107 28.18C111.427 28.9533 111.587 29.8733 111.587 30.94C111.587 31.9 111.427 32.74 111.107 33.46C110.787 34.18 110.334 34.74 109.747 35.14C109.16 35.5267 108.467 35.72 107.667 35.72ZM108.427 33.5C108.88 33.5 109.274 33.3867 109.607 33.16C109.954 32.92 110.22 32.6 110.407 32.2C110.594 31.7867 110.687 31.32 110.687 30.8C110.687 30.2667 110.587 29.8 110.387 29.4C110.2 29 109.934 28.6867 109.587 28.46C109.254 28.2333 108.86 28.12 108.407 28.12C107.94 28.12 107.527 28.2333 107.167 28.46C106.807 28.6867 106.527 29 106.327 29.4C106.127 29.8 106.02 30.2667 106.007 30.8C106.02 31.32 106.127 31.7867 106.327 32.2C106.527 32.6 106.807 32.92 107.167 33.16C107.54 33.3867 107.96 33.5 108.427 33.5ZM121.739 36L121.659 33.98V30.94C121.659 30.34 121.592 29.8267 121.459 29.4C121.339 28.9733 121.139 28.6467 120.859 28.42C120.592 28.18 120.225 28.06 119.759 28.06C119.332 28.06 118.945 28.1533 118.599 28.34C118.252 28.5267 117.959 28.8133 117.719 29.2L115.399 28.4C115.585 27.9733 115.859 27.56 116.219 27.16C116.579 26.7467 117.045 26.4133 117.619 26.16C118.205 25.8933 118.919 25.76 119.759 25.76C120.772 25.76 121.612 25.9533 122.279 26.34C122.959 26.7267 123.459 27.2733 123.779 27.98C124.112 28.6733 124.272 29.5 124.259 30.46L124.199 36H121.739ZM118.939 36.24C117.739 36.24 116.805 35.9733 116.139 35.44C115.485 34.9067 115.159 34.1533 115.159 33.18C115.159 32.1133 115.512 31.3133 116.219 30.78C116.939 30.2333 117.945 29.96 119.239 29.96H121.779V31.92H120.159C119.292 31.92 118.692 32.0267 118.359 32.24C118.025 32.44 117.859 32.7267 117.859 33.1C117.859 33.3933 117.992 33.6267 118.259 33.8C118.525 33.96 118.899 34.04 119.379 34.04C119.819 34.04 120.205 33.94 120.539 33.74C120.885 33.5267 121.159 33.26 121.359 32.94C121.559 32.6067 121.659 32.2667 121.659 31.92H122.299C122.299 33.28 122.039 34.34 121.519 35.1C121.012 35.86 120.152 36.24 118.939 36.24ZM126.363 36V26H128.843L128.963 27.3C129.269 26.7933 129.663 26.4133 130.143 26.16C130.623 25.8933 131.156 25.76 131.743 25.76C132.556 25.76 133.236 25.9333 133.783 26.28C134.343 26.6267 134.749 27.16 135.003 27.88C135.296 27.2 135.709 26.68 136.243 26.32C136.776 25.9467 137.396 25.76 138.103 25.76C139.276 25.76 140.169 26.1333 140.783 26.88C141.396 27.6133 141.703 28.7467 141.703 30.28V36H139.063V30.88C139.063 30.2 138.989 29.6733 138.843 29.3C138.696 28.9267 138.496 28.66 138.243 28.5C137.989 28.3267 137.689 28.24 137.343 28.24C136.703 28.2267 136.209 28.4333 135.863 28.86C135.516 29.2867 135.343 29.92 135.343 30.76V36H132.703V30.88C132.703 30.2 132.629 29.6733 132.483 29.3C132.349 28.9267 132.149 28.66 131.883 28.5C131.629 28.3267 131.329 28.24 130.983 28.24C130.343 28.2267 129.849 28.4333 129.503 28.86C129.169 29.2867 129.003 29.92 129.003 30.76V36H126.363ZM148.324 36.24C147.337 36.24 146.464 36.02 145.704 35.58C144.944 35.1267 144.344 34.5067 143.904 33.72C143.477 32.9333 143.264 32.0267 143.264 31C143.264 29.9733 143.484 29.0667 143.924 28.28C144.377 27.4933 144.991 26.88 145.764 26.44C146.551 25.9867 147.451 25.76 148.464 25.76C149.344 25.76 150.151 25.9933 150.884 26.46C151.631 26.9133 152.224 27.5867 152.664 28.48C153.117 29.36 153.344 30.4333 153.344 31.7H145.764L146.004 31.46C146.004 31.9533 146.124 32.3867 146.364 32.76C146.617 33.12 146.937 33.4 147.324 33.6C147.724 33.7867 148.151 33.88 148.604 33.88C149.151 33.88 149.597 33.7667 149.944 33.54C150.291 33.3 150.557 32.9933 150.744 32.62L153.104 33.54C152.824 34.1 152.457 34.5867 152.004 35C151.564 35.4 151.037 35.7067 150.424 35.92C149.811 36.1333 149.111 36.24 148.324 36.24ZM146.144 29.98L145.904 29.74H150.724L150.504 29.98C150.504 29.5 150.391 29.12 150.164 28.84C149.937 28.5467 149.657 28.3333 149.324 28.2C149.004 28.0667 148.691 28 148.384 28C148.077 28 147.751 28.0667 147.404 28.2C147.057 28.3333 146.757 28.5467 146.504 28.84C146.264 29.12 146.144 29.5 146.144 29.98Z" fill="white"/>
</g>
<defs>
<filter id="filter0_d_2197_5350" x="0" y="0" width="182" height="64" filterUnits="userSpaceOnUse" color-interpolation-filters="sRGB">
<feFlood flood-opacity="0" result="BackgroundImageFix"/>
<feColorMatrix in="SourceAlpha" type="matrix" values="0 0 0 0 0 0 0 0 0 0 0 0 0 0 0 0 0 0 127 0" result="hardAlpha"/>
<feOffset dx="3" dy="3"/>
<feGaussianBlur stdDeviation="2.5"/>
<feComposite in2="hardAlpha" operator="out"/>
<feColorMatrix type="matrix" values="0 0 0 0 0.184314 0 0 0 0 0.180392 0 0 0 0 0.180392 0 0 0 0.2 0"/>
<feBlend mode="normal" in2="BackgroundImageFix" result="effect1_dropShadow_2197_5350"/>
<feBlend mode="normal" in="SourceGraphic" in2="effect1_dropShadow_2197_5350" result="shape"/>
</filter>
<filter id="filter1_d_2197_5350" x="24.25" y="16.25" width="34.75" height="31.5" filterUnits="userSpaceOnUse" color-interpolation-filters="sRGB">
<feFlood flood-opacity="0" result="BackgroundImageFix"/>
<feColorMatrix in="SourceAlpha" type="matrix" values="0 0 0 0 0 0 0 0 0 0 0 0 0 0 0 0 0 0 127 0" result="hardAlpha"/>
<feOffset dx="3" dy="3"/>
<feGaussianBlur stdDeviation="2.25"/>
<feComposite in2="hardAlpha" operator="out"/>
<feColorMatrix type="matrix" values="0 0 0 0 0.11437 0 0 0 0 0.113196 0 0 0 0 0.113196 0 0 0 0.35 0"/>
<feBlend mode="normal" in2="BackgroundImageFix" result="effect1_dropShadow_2197_5350"/>
<feBlend mode="normal" in="SourceGraphic" in2="effect1_dropShadow_2197_5350" result="shape"/>
</filter>
</defs>
</svg>
