<svg width="96" height="48" viewBox="0 0 96 48" fill="none" xmlns="http://www.w3.org/2000/svg">
<rect width="96" height="48" rx="10" fill="#BFE5F2"/>
<path d="M30.74 31V17H33.48V31H30.74ZM21.52 31V16.98H24.26V31H21.52ZM23.56 25.1V22.58H32.04V25.1H23.56ZM40.84 31.24C39.8267 31.24 38.92 31.02 38.12 30.58C37.3333 30.1267 36.7133 29.5067 36.26 28.72C35.82 27.9333 35.6 27.0267 35.6 26C35.6 24.9733 35.82 24.0667 36.26 23.28C36.7 22.4933 37.3133 21.88 38.1 21.44C38.8867 20.9867 39.7867 20.76 40.8 20.76C41.8267 20.76 42.7333 20.9867 43.52 21.44C44.3067 21.88 44.92 22.4933 45.36 23.28C45.8 24.0667 46.02 24.9733 46.02 26C46.02 27.0267 45.8 27.9333 45.36 28.72C44.92 29.5067 44.3067 30.1267 43.52 30.58C42.7467 31.02 41.8533 31.24 40.84 31.24ZM40.84 28.8C41.3333 28.8 41.7667 28.68 42.14 28.44C42.5133 28.2 42.8 27.8733 43 27.46C43.2133 27.0333 43.32 26.5467 43.32 26C43.32 25.4533 43.2133 24.9733 43 24.56C42.7867 24.1333 42.4867 23.8 42.1 23.56C41.7267 23.32 41.2933 23.2 40.8 23.2C40.32 23.2 39.8867 23.32 39.5 23.56C39.1267 23.8 38.8333 24.1333 38.62 24.56C38.4067 24.9733 38.3 25.4533 38.3 26C38.3 26.5467 38.4067 27.0333 38.62 27.46C38.8333 27.8733 39.1333 28.2 39.52 28.44C39.9067 28.68 40.3467 28.8 40.84 28.8ZM47.7611 31V21H50.2411L50.3611 22.3C50.6678 21.7933 51.0611 21.4133 51.5411 21.16C52.0211 20.8933 52.5544 20.76 53.1411 20.76C53.9544 20.76 54.6344 20.9333 55.1811 21.28C55.7411 21.6267 56.1478 22.16 56.4011 22.88C56.6944 22.2 57.1078 21.68 57.6411 21.32C58.1744 20.9467 58.7944 20.76 59.5011 20.76C60.6744 20.76 61.5678 21.1333 62.1811 21.88C62.7944 22.6133 63.1011 23.7467 63.1011 25.28V31H60.4611V25.88C60.4611 25.2 60.3878 24.6733 60.2411 24.3C60.0944 23.9267 59.8944 23.66 59.6411 23.5C59.3878 23.3267 59.0878 23.24 58.7411 23.24C58.1011 23.2267 57.6078 23.4333 57.2611 23.86C56.9144 24.2867 56.7411 24.92 56.7411 25.76V31H54.1011V25.88C54.1011 25.2 54.0278 24.6733 53.8811 24.3C53.7478 23.9267 53.5478 23.66 53.2811 23.5C53.0278 23.3267 52.7278 23.24 52.3811 23.24C51.7411 23.2267 51.2478 23.4333 50.9011 23.86C50.5678 24.2867 50.4011 24.92 50.4011 25.76V31H47.7611ZM69.7225 31.24C68.7358 31.24 67.8625 31.02 67.1025 30.58C66.3425 30.1267 65.7425 29.5067 65.3025 28.72C64.8758 27.9333 64.6625 27.0267 64.6625 26C64.6625 24.9733 64.8825 24.0667 65.3225 23.28C65.7758 22.4933 66.3892 21.88 67.1625 21.44C67.9492 20.9867 68.8492 20.76 69.8625 20.76C70.7425 20.76 71.5492 20.9933 72.2825 21.46C73.0292 21.9133 73.6225 22.5867 74.0625 23.48C74.5158 24.36 74.7425 25.4333 74.7425 26.7H67.1625L67.4025 26.46C67.4025 26.9533 67.5225 27.3867 67.7625 27.76C68.0158 28.12 68.3358 28.4 68.7225 28.6C69.1225 28.7867 69.5492 28.88 70.0025 28.88C70.5492 28.88 70.9958 28.7667 71.3425 28.54C71.6892 28.3 71.9558 27.9933 72.1425 27.62L74.5025 28.54C74.2225 29.1 73.8558 29.5867 73.4025 30C72.9625 30.4 72.4358 30.7067 71.8225 30.92C71.2092 31.1333 70.5092 31.24 69.7225 31.24ZM67.5425 24.98L67.3025 24.74H72.1225L71.9025 24.98C71.9025 24.5 71.7892 24.12 71.5625 23.84C71.3358 23.5467 71.0558 23.3333 70.7225 23.2C70.4025 23.0667 70.0892 23 69.7825 23C69.4758 23 69.1492 23.0667 68.8025 23.2C68.4558 23.3333 68.1558 23.5467 67.9025 23.84C67.6625 24.12 67.5425 24.5 67.5425 24.98Z" fill="#1E7594"/>
</svg>
